<svg xmlns="http://www.w3.org/2000/svg" width="100" height="100" viewBox="0 0 100 100">
    <path fill="#555" d="M75,29.2857305 L75,34.4642695 C75,39.027918 63.5781629,42.75 49.5,42.75 C35.4218371,42.75 24,39.027918 24,34.4642695 L24,29.2857305 C24,24.722082 35.4218371,21 49.5,21 C63.5781629,21 75,24.722082 75,29.2857305 Z M75,40.9375 L75,52.5892695 C75,57.152918 63.5781629,60.875 49.5,60.875 C35.4218371,60.875 24,57.152918 24,52.5892695 L24,40.9375 C29.4785156,44.6919805 39.5058214,46.4397969 49.5,46.4397969 C59.4941786,46.4397969 69.5213705,44.6919805 75,40.9375 Z M75,59.0625 L75,70.7142695 C75,75.277918 63.5781629,79 49.5,79 C35.4218371,79 24,75.277918 24,70.7142695 L24,59.0625 C29.4785156,62.8169805 39.5058214,64.5647969 49.5,64.5647969 C59.4941786,64.5647969 69.5213705,62.8169805 75,59.0625 Z"/>
</svg>
