<svg xmlns="http://www.w3.org/2000/svg" width="100" height="100" viewBox="0 0 100 100">
    <path fill="#08A276" fill-rule="evenodd" d="M50.5,18 C68.4492544,18 83,32.5507456 83,50.5 C83,68.4492544 68.4492544,83 50.5,83 C32.5507456,83 18,68.4492544 18,50.5 C18,32.5507456 32.5507456,18 50.5,18 Z M64.3479911,37.9447934 L44.8252448,57.4675396 L37.6519183,50.2942131 C37.3040912,49.946386 36.740204,49.946386 36.3923044,50.2942131 L34.2931655,52.393352 C33.9453384,52.7411791 33.9453384,53.3050663 34.2931655,53.6529659 L44.1954742,63.5552746 C44.5432288,63.9030292 45.107116,63.9030292 45.4550155,63.5552746 L67.7066715,41.3035462 C68.0544985,40.9557916 68.0544985,40.3918319 67.7066715,40.0440048 L65.6075325,37.9447934 C65.2597054,37.5970388 64.6958182,37.5970388 64.3479911,37.9447934 Z"/>
</svg>
