<svg xmlns="http://www.w3.org/2000/svg" width="100" height="100" viewBox="0 0 100 100">
    <path fill="#555" d="M35,15.5 C36.3254834,15.5 37.4100387,16.5315359 37.4946823,17.8356243 L37.5,18 L37.499513,33.385 L66.197513,33.385 L82.4789187,17.2888784 C82.8716603,16.9005841 83.504815,16.9041893 83.8931094,17.2969309 C84.2515349,17.6594617 84.2760342,18.2268414 83.9687805,18.6173894 L83.8850568,18.7111216 L67.026513,35.378 L67.026513,63.136 L83.1819878,63.1363898 C84.5074712,63.1363898 85.5920265,64.1679257 85.6766701,65.4720141 L85.6819878,65.6363898 C85.6819878,66.9618732 84.6504518,68.0464284 83.3463635,68.1310721 L83.1819878,68.1363898 L67.026513,68.136 L67.0275008,83.5219518 C67.0275008,84.9026637 65.9082126,86.0219518 64.5275008,86.0219518 C63.2020174,86.0219518 62.1174621,84.9904159 62.0328184,83.6863275 L62.0275008,83.5219518 L62.026513,68.136 L32.5,68.1363898 L32.499513,38.385 L16.345513,38.3855621 C15.0200296,38.3855621 13.9354743,37.3540261 13.8508306,36.0499378 L13.845513,35.8855621 C13.845513,34.5600787 14.8770489,33.4755234 16.1811373,33.3908797 L16.345513,33.3855621 L32.499513,33.385 L32.5,18 C32.5,16.6192881 33.6192881,15.5 35,15.5 Z M62.026513,40.321 L38.950513,63.136 L62.026513,63.136 L62.026513,40.321 Z M61.141513,38.384 L37.499513,38.385 L37.500513,61.757 L61.141513,38.384 Z" />
</svg>
