<svg xmlns="http://www.w3.org/2000/svg" width="100" height="100" viewBox="0 0 100 100">
    <path fill="#555" d="M67.3873153,56.1175411 L69.9480296,49.3927402 C70.376601,48.2647784 69.551601,47.0616192 68.3408867,47.0616192 L62.0730296,47.0616192 C63.251601,45.0312879 63.9801724,42.7001669 63.9801724,40.1864234 L63.9801724,40.1541959 C68.1801724,39.3162815 70.8373153,38.1023797 70.8373153,36.7488256 C70.8373153,35.3200739 67.9123153,34.0524597 63.326601,33.2038028 C62.3408867,29.6802649 60.4337438,26.1352421 58.976601,24.3090183 C57.9587438,23.0306616 56.201601,22.6331893 54.7444581,23.3636788 L51.7873153,24.8461429 C50.8230296,25.3295551 49.6873153,25.3295551 48.7230296,24.8461429 L45.7658867,23.3636788 C44.3087438,22.6331893 42.551601,23.0306616 41.5337438,24.3090183 C40.0873153,26.1352421 38.1694581,29.6802649 37.1837438,33.2038028 C32.6087438,34.0524597 29.6837438,35.3200739 29.6837438,36.7488256 C29.6837438,38.1023797 32.3408867,39.3162815 36.5408867,40.1541959 L36.5408867,40.1864234 C36.5408867,42.7001669 37.2694581,45.0312879 38.4480296,47.0616192 L32.2873153,47.0616192 C31.0551724,47.0616192 30.2301724,48.3184909 30.7123153,49.4571952 L33.476601,55.9241762 C29.1801724,58.4271771 26.2551724,63.0357068 26.2551724,68.374726 L26.2551724,73.187363 C26.2551724,75.8407588 28.4087438,78 31.0551724,78 L69.4551724,78 C72.101601,78 74.2551724,75.8407588 74.2551724,73.187363 L74.2551724,68.374726 C74.2551724,63.1753592 71.4908867,58.663512 67.3873153,56.1175411 Z M45.1123153,74.5624021 L40.6551724,53.9368149 L45.9694581,57.3744128 L48.5408867,61.6714101 L45.1123153,74.5624021 Z M55.3980296,74.5624021 L51.9694581,61.6714101 L54.5408867,57.3744128 L59.8551724,53.9368149 L55.3980296,74.5624021 Z M59.8658867,42.4960595 C59.4480296,43.7744162 59.1158867,45.1387129 58.0980296,46.0840523 C57.0158867,47.0831042 52.9551724,48.4903708 51.2408867,43.3984289 C50.9408867,42.4960595 49.5908867,42.4960595 49.2801724,43.3984289 C47.4587438,48.7911606 43.2801724,46.8789968 42.4230296,46.0840523 C41.4051724,45.1387129 41.0623153,43.7744162 40.6551724,42.4960595 C40.5694581,42.2274972 39.9801724,41.8837374 39.9801724,41.8729949 L39.9801724,40.7128056 C43.0123153,41.0995354 46.5158867,41.3358702 50.2658867,41.3358702 C54.0158867,41.3358702 57.5194581,41.1102779 60.551601,40.7128056 L60.551601,41.8729949 C60.5408867,41.8837374 59.951601,42.2167547 59.8658867,42.4960595 Z"/>
</svg>
