<svg xmlns="http://www.w3.org/2000/svg" width="100" height="100" viewBox="0 0 100 100">
    <g fill="none" fill-rule="evenodd">
        <path fill="#555" d="M83 21C83.5522847 21 84 21.4477153 84 22L84 42C84 42.5522847 83.5522847 43 83 43L18 43C17.4477153 43 17 42.5522847 17 42L17 22C17 21.4477153 17.4477153 21 18 21L83 21zM71.5 28C69.5670034 28 68 29.5670034 68 31.5 68 33.4329966 69.5670034 35 71.5 35 73.4329966 35 75 33.4329966 75 31.5 75 29.5670034 73.4329966 28 71.5 28zM38 30L25 30 25 33 38 33 38 30zM55 30L42 30 42 33 55 33 55 30zM83 54C83.5522847 54 84 54.4477153 84 55L84 75C84 75.5522847 83.5522847 76 83 76L18 76C17.4477153 76 17 75.5522847 17 75L17 55C17 54.4477153 17.4477153 54 18 54L83 54zM71.5 61C69.5670034 61 68 62.5670034 68 64.5 68 66.4329966 69.5670034 68 71.5 68 73.4329966 68 75 66.4329966 75 64.5 75 62.5670034 73.4329966 61 71.5 61zM38 63L25 63 25 66 38 66 38 63zM55 63L42 63 42 66 55 66 55 63z"/>
        <line x1="28.5" x2="28.5" y1="42.5" y2="51.5" stroke="#555" stroke-linecap="round" stroke-width="2"/>
        <line x1="72" x2="72" y1="42.5" y2="51.5" stroke="#555" stroke-linecap="round" stroke-width="2"/>
    </g>
</svg>
