<svg xmlns="http://www.w3.org/2000/svg" width="100" height="100" viewBox="0 0 100 100">
    <path fill="#555" d="M50.0256213,13.5 C50.5384572,13.5 50.9611285,13.8860402 51.0188936,14.3833789 L51.0256213,14.5 L51.0256213,86.5 C51.0256213,87.0522847 50.5779061,87.5 50.0256213,87.5 C49.5127855,87.5 49.0901142,87.1139598 49.032349,86.6166211 L49.0256213,86.5 L49.0256213,14.5 C49.0256213,13.9477153 49.4733366,13.5 50.0256213,13.5 Z M44.4355463,33.8262698 C44.6186045,34.0131735 44.7211283,34.2643724 44.7211283,34.5259887 L44.7211283,66.1330068 C44.7211283,66.6852915 44.273413,67.1330068 43.7211283,67.1330068 L11.4501514,67.1330068 C10.8978667,67.1330068 10.4501514,66.6852915 10.4501514,66.1330068 C10.4501514,65.8641868 10.5583824,65.6066874 10.7504322,65.4185888 L43.0214091,33.811571 C43.4159712,33.4251268 44.049102,33.4317077 44.4355463,33.8262698 Z M55.8112033,33.8262698 C56.1679211,33.4620586 56.7348333,33.428435 57.1302736,33.7293661 L57.2253405,33.811571 L89.4963174,65.4185888 C89.6883672,65.6066874 89.7965982,65.8641868 89.7965982,66.1330068 C89.7965982,66.6458426 89.410558,67.068514 88.9132193,67.1262791 L88.7965982,67.1330068 L56.5256213,67.1330068 C56.0127855,67.1330068 55.5901142,66.7469666 55.532349,66.2496279 L55.5256213,66.1330068 L55.5256213,34.5259887 C55.5256213,34.2643724 55.6281451,34.0131735 55.8112033,33.8262698 Z" />
</svg>
