<svg xmlns="http://www.w3.org/2000/svg" width="100" height="100" viewBox="0 0 100 100">
    <path fill="#555" d="M73.2499136,44.0000715 C75.2541753,44.0000715 76.8911791,45.5724217 76.9947067,47.5509038 L76.9999046,47.7500626 L76.9999046,70.2500089 C76.9999046,72.2542707 75.4275545,73.8912745 73.4490724,73.994802 L73.2499136,74 L40.7499911,74 C38.7457293,74 37.1087255,72.4276498 37.005198,70.4491677 L37,70.2500089 L37,47.7500626 C37,45.7458008 38.5723502,44.108797 40.5508323,44.0052695 L40.7499911,44.0000715 L73.2499136,44.0000715 Z M72.7811647,47.7500626 L41.2187399,47.7500626 C40.9887736,47.7500626 40.7972668,47.9160175 40.7575489,48.1345982 L40.7499911,48.2188115 L40.7499911,69.7812601 C40.7499911,70.0112264 40.915946,70.2027332 41.1345267,70.2424511 L41.2187399,70.2500089 L72.7811647,70.2500089 C73.011131,70.2500089 73.2026378,70.084054 73.2423558,69.8654733 L73.2499136,69.7812601 L73.2499136,48.2188115 C73.2499136,47.9888451 73.0839586,47.7973383 72.8653779,47.7576204 L72.7811647,47.7500626 Z M61.3369476,53.4129672 C61.6749877,53.0749975 62.2067507,53.0489999 62.5745343,53.3349742 L62.6628569,53.4129672 L69.4999225,60.2500328 L69.4999225,66.5000179 L44.4999821,66.5000179 L44.4999821,62.7500268 L47.5869804,59.6629523 C47.9250204,59.3249826 48.4567834,59.298985 48.824567,59.5849593 L48.9128897,59.6629523 L51.9999642,62.7500268 L61.3369476,53.4129672 Z M53.6377081,16.7071068 C53.9981921,16.3466228 54.5654231,16.3188933 54.9577144,16.6239182 L55.0519217,16.7071068 L63.2443098,24.8994949 C63.6047938,25.2599789 63.6325233,25.82721 63.3274985,26.2195012 L63.2443098,26.3137085 L55.0519217,34.5060967 C54.8643853,34.693633 54.6100314,34.7989899 54.3448149,34.7989899 C53.8319791,34.7989899 53.4093078,34.4129497 53.3515426,33.915611 L53.3448149,33.7989899 L53.344,26.5152136 L35,26.5156078 C27.3724998,26.5156078 21.1696731,32.6153602 21.003422,40.2029628 L21,40.5156078 L21,61.5156078 C21,62.0678926 20.5522847,62.5156078 20,62.5156078 C19.4871642,62.5156078 19.0644928,62.1295676 19.0067277,61.632229 L19,61.5156078 L19,40.5156078 C19,31.7842489 25.993901,24.6864031 34.6851293,24.5186442 L35,24.5156078 L53.344,24.5152136 L53.3448149,17.4142136 C53.3448149,17.1931998 53.4179794,16.9797295 53.5508955,16.806184 L53.6377081,16.7071068 Z M46.9999762,50.8750551 C48.7258174,50.8750551 50.1249687,52.2742065 50.1249687,54.0000477 C50.1249687,55.7258889 48.7258174,57.1250402 46.9999762,57.1250402 C45.2741349,57.1250402 43.8749836,55.7258889 43.8749836,54.0000477 C43.8749836,52.2742065 45.2741349,50.8750551 46.9999762,50.8750551 Z" />
</svg>
