<svg xmlns="http://www.w3.org/2000/svg" width="100" height="100" viewBox="0 0 100 100">
    <path fill="#555" d="M82.5,62.5 C83.0128358,62.5 83.4355072,62.8860402 83.4932723,63.3833789 L83.5,63.5 L83.5,73.5 C83.5,75.0976809 82.25108,76.4036609 80.6762728,76.4949073 L80.5,76.5 L71.5,76.5 C70.9477153,76.5 70.5,76.0522847 70.5,75.5 C70.5,74.9871642 70.8860402,74.5644928 71.3833789,74.5067277 L71.5,74.5 L80.5,74.5 C81.0128358,74.5 81.4355072,74.1139598 81.4932723,73.6166211 L81.5,73.5 L81.5,63.5 C81.5,62.9477153 81.9477153,62.5 82.5,62.5 Z M72.8436312,29.7500983 C75.6183346,29.7500983 77.8811289,31.9417465 77.9953454,34.6883739 L77.9998689,34.9063361 L77.9998689,65.8437623 C77.9998689,68.6184657 75.8082208,70.8812601 73.0615933,70.9954765 L72.8436312,71 L28.1562377,71 C25.3815343,71 23.1187399,68.8083519 23.0045235,66.0617245 L23,65.8437623 L23,34.9063361 C23,32.1316326 25.1916481,29.8688383 27.9382755,29.7546218 L28.1562377,29.7500983 L72.8436312,29.7500983 Z M61.72392,42.6928299 C61.2540484,42.2229582 60.5117641,42.1916334 60.0054854,42.5988555 L59.9007947,42.6928299 L45.3436967,57.2500328 L39.3802233,51.2865594 C38.9103516,50.8166877 38.1680673,50.7853629 37.6617887,51.192585 L37.557098,51.2865594 L29.8749836,58.9687787 L29.8749836,64.1250164 L71.1248853,64.1250164 L71.1248853,52.0937951 L61.72392,42.6928299 Z M35.0312213,35.765709 C31.708914,35.765709 29.0156107,38.4590124 29.0156107,41.7813197 C29.0156107,45.103627 31.708914,47.7969303 35.0312213,47.7969303 C38.3535286,47.7969303 41.046832,45.103627 41.046832,41.7813197 C41.046832,38.4590124 38.3535286,35.765709 35.0312213,35.765709 Z M28.5,23.5 C29.0522847,23.5 29.5,23.9477153 29.5,24.5 C29.5,25.0128358 29.1139598,25.4355072 28.6166211,25.4932723 L28.5,25.5 L19.5,25.5 C18.9871642,25.5 18.5644928,25.8860402 18.5067277,26.3833789 L18.5,26.5 L18.5,36.5 C18.5,37.0522847 18.0522847,37.5 17.5,37.5 C16.9871642,37.5 16.5644928,37.1139598 16.5067277,36.6166211 L16.5,36.5 L16.5,26.5 C16.5,24.9023191 17.74892,23.5963391 19.3237272,23.5050927 L19.5,23.5 L28.5,23.5 Z" />
</svg>
