<svg xmlns="http://www.w3.org/2000/svg" width="100" height="100" viewBox="0 0 100 100">
    <g fill="none" fill-rule="evenodd">
        <path fill="#EAEAEA" d="M50,17 C68.2253967,17 83,31.7746033 83,50 C83,68.2253967 68.2253967,83 50,83 C31.7746033,83 17,68.2253967 17,50 C17,31.7746033 31.7746033,17 50,17 Z M50,22 C34.536027,22 22,34.536027 22,50 C22,65.463973 34.536027,78 50,78 C65.463973,78 78,65.463973 78,50 C78,34.536027 65.463973,22 50,22 Z"/>
        <path fill="#555" d="M50,17 C68.2253967,17 83,31.7746033 83,50 L78,50 L78,50 C78,34.536027 65.463973,22 50,22 L50,17 L50,17 Z"/>
    </g>
</svg>
